<svg xmlns="http://www.w3.org/2000/svg" viewBox="0 0 148.13 83.94"><defs><style>.cls-1{fill:#0071bc;}</style></defs><g id="Layer_2" data-name="Layer 2"><g id="Layer_1-2" data-name="Layer 1"><path class="cls-1" d="M97.81,45.23A106.92,106.92,0,0,0,77.43,28.37,2.74,2.74,0,0,0,75.25,28c-2.63.63-4.89,1.76-6.12,4.39-.61,1.29-1.32,2.53-2,3.76-2.25,3.78-5.26,6.62-9.73,7.53a4.93,4.93,0,0,1-5.61-5.11,67.81,67.81,0,0,1,3.39-15.28,4.23,4.23,0,0,1,1.57-2.13,84,84,0,0,1,9-5.83c1.79-1,3.59-1.94,5.38-2.94.39-.21,1.07-.53.37-1-1.23-.83-2.38-1.76-4.16-1.29-6.76,1.77-13.59,3.29-20.33,5.13a7.79,7.79,0,0,1-6.4-.55c-1-.6-1.59-.27-2.09.76-1.48,3-3.06,6-4.58,9Q28.58,34.87,23.29,45.31c-.45.88-.39,1.47.59,1.94,1.2.57,2.35,1.25,3.53,1.87C30,50.47,30,50.5,31.82,48.31a6.11,6.11,0,0,1,6-2.47,6.62,6.62,0,0,1,5.51,5c.38,1.42.73,1.22,1.55.34a5.7,5.7,0,0,1,6.64-1.53A6.39,6.39,0,0,1,56,55.52c.07,1.33.5,1.43,1.65,1.19,4.21-.85,8.49,3.22,7.69,7.42-.3,1.56,0,1.8,1.5,1.8a6.49,6.49,0,0,1,5.93,3.82c1.22,2.36.73,4.61-.85,6.67-.84,1.09-1.66,2.2-2.54,3.26a1.3,1.3,0,0,0,0,1.79,5.24,5.24,0,0,0,7.73,1.32c2.38-1.64,2.75-4.6.89-7.16-1.49-2-3-4-4.49-6.1-.28-.39-.86-.93-.3-1.35s.87.35,1.14.71q3.11,4.1,6.14,8.24a5.29,5.29,0,0,0,9-.59,4.65,4.65,0,0,0-.44-5.35c-.79-1.08-1.6-2.13-2.4-3.2q-1.9-2.58-3.8-5.17c-.23-.31-.46-.69,0-1s.6.11.82.35.41.52.61.78c2,2.71,4,5.44,6.07,8.11a5.09,5.09,0,0,0,7.36.87A4.74,4.74,0,0,0,98.79,65c-1.11-1.6-2.31-3.14-3.47-4.71-1-1.3-1.92-2.6-2.86-3.91-.22-.31-.5-.7-.07-1s.7.07,1,.36.39.54.59.81c1.93,2.59,3.84,5.2,5.8,7.77s5,3.1,7.62,1.14c2.4-1.82,2.73-4.63.73-7.3C104.77,53.78,101.64,49.25,97.81,45.23Z"/><path class="cls-1" d="M109.79,15.52c-.56-1.13-1.15-1.52-2.28-.84-2,1.21-4,1.11-6.28.5-6.74-1.83-13.56-3.41-20.34-5.1a3.42,3.42,0,0,0-2.36,0A108,108,0,0,0,57.42,21.94a3,3,0,0,0-1.17,1.41,68,68,0,0,0-3.4,15,3.79,3.79,0,0,0,4.43,4.14,10.9,10.9,0,0,0,5.3-2.63c2.68-2.35,4.29-5.44,5.85-8.54,1.44-2.86,4-3.88,6.87-4.51a3.73,3.73,0,0,1,3,.72A129.89,129.89,0,0,1,90,36.39a136.72,136.72,0,0,1,10.77,10.49A94.54,94.54,0,0,1,107.8,56c.78,1.06,1.39,1.44,2.66.67,1.91-1.15,4-2,5.93-3.12,2.91-1.62,6-2.89,8.72-4.86.7-.51,1-1,.56-1.87Q117.68,31.2,109.79,15.52Z"/><path class="cls-1" d="M38.84,8.47q-8.06-4-16-8.15c-1-.52-1.44-.2-1.87.68-1,2.1-2.08,4.17-3.14,6.25Q9.06,24.49.3,41.72c-.54,1.05-.38,1.56.68,2.09,5.33,2.65,10.61,5.37,15.91,8.06.34.17.69.31,1,.45.83,0,.94-.64,1.18-1.11Q29.32,31,39.6,10.75C40.2,9.58,40,9,38.84,8.47Z"/><path class="cls-1" d="M136.84,20q-4.78-9.42-9.57-18.83C127,.66,126.9,0,126.1,0c-.21.1-.47.21-.72.34-5.35,2.71-10.67,5.47-16,8.12-1.29.64-1.3,1.24-.71,2.41Q118.87,31,129,51.08c.63,1.26,1.21,1.38,2.4.75,5.14-2.68,10.31-5.32,15.52-7.88,1.29-.63,1.51-1.19.84-2.48C144.07,34.33,140.47,27.15,136.84,20Z"/><path class="cls-1" d="M48.77,50.34a4.73,4.73,0,0,0-3.55,2.09c-1.41,1.73-2.79,3.49-4.17,5.24-.77,1-1.57,1.9-2.27,2.92a5.15,5.15,0,0,0,1.08,7.24c2.61,2,5.59,1.7,7.58-.76,2.15-2.66,4.24-5.36,6.35-8a4.75,4.75,0,0,0,.53-5.59A5.78,5.78,0,0,0,48.77,50.34Z"/><path class="cls-1" d="M58.39,57.77a4.61,4.61,0,0,0-3.68,1.94c-2.13,2.68-4.28,5.34-6.35,8.06a5.39,5.39,0,0,0,8.34,6.81c2.27-2.68,4.42-5.46,6.54-8.26a4.68,4.68,0,0,0,.49-5.47A5.67,5.67,0,0,0,58.39,57.77Z"/><path class="cls-1" d="M69.85,68a5.09,5.09,0,0,0-7.25,1c-1.69,2-3.32,4.15-4.93,6.27a4.85,4.85,0,0,0-.54,5.49,5.5,5.5,0,0,0,4.95,3.18,4.41,4.41,0,0,0,3.54-1.43c2-2.37,4-4.72,5.75-7.25S72.39,69.83,69.85,68Z"/><path class="cls-1" d="M40,47.85c-2.56-1.62-5.26-1.33-7.05.82-1.18,1.42-2.34,2.86-3.45,4.35a4.86,4.86,0,0,0-.61,5.48,5.67,5.67,0,0,0,5.16,3.19,4,4,0,0,0,3.25-1.24,28.53,28.53,0,0,0,4.59-6A5.18,5.18,0,0,0,40,47.85Z"/></g></g></svg>