<svg xmlns="http://www.w3.org/2000/svg" xmlns:xlink="http://www.w3.org/1999/xlink" width="2000" zoomAndPan="magnify" viewBox="0 0 1500 843.749997" height="1125" preserveAspectRatio="xMidYMid meet" version="1.0"><defs><g/></defs><path fill="#0f3f6f" d="M 18.753906 472.734375 L 1481.242188 472.734375 L 1481.242188 490.730469 L 18.753906 490.730469 Z M 18.753906 472.734375 " fill-opacity="1" fill-rule="nonzero"/><g fill="#0f3f6f" fill-opacity="1"><g transform="translate(18.753976, 462.987817)"><g><path d="M 103.109375 -80.109375 C 109.898438 -80.109375 114.65625 -81.25 117.375 -83.53125 C 120.101562 -85.820312 121.46875 -90.179688 121.46875 -96.609375 C 121.46875 -103.035156 120.101562 -107.390625 117.375 -109.671875 C 114.65625 -111.960938 109.957031 -113.109375 103.28125 -113.109375 L 46.359375 -113.109375 L 46.359375 -80.109375 Z M 104.03125 -135 C 110.457031 -135 116.359375 -134.222656 121.734375 -132.671875 C 127.117188 -131.128906 131.753906 -128.75 135.640625 -125.53125 C 139.535156 -122.320312 142.535156 -118.304688 144.640625 -113.484375 C 146.742188 -108.660156 147.796875 -103.035156 147.796875 -96.609375 C 147.796875 -83.253906 144.085938 -73.519531 136.671875 -67.40625 C 129.253906 -61.289062 118.3125 -58.234375 103.84375 -58.234375 L 46.359375 -58.234375 L 46.359375 -7.96875 C 46.359375 -5.988281 46.664062 -4.597656 47.28125 -3.796875 C 47.90625 -2.992188 49.328125 -2.59375 51.546875 -2.59375 L 51.546875 0 L 14.828125 0 L 14.828125 -2.59375 C 16.929688 -2.59375 18.320312 -2.992188 19 -3.796875 C 19.6875 -4.597656 20.03125 -5.988281 20.03125 -7.96875 L 20.03125 -127.03125 C 20.03125 -129 19.71875 -130.382812 19.09375 -131.1875 C 18.476562 -132 17.054688 -132.40625 14.828125 -132.40625 L 14.828125 -135 Z M 104.03125 -135 "/></g></g></g><g fill="#0f3f6f" fill-opacity="1"><g transform="translate(173.216715, 462.987817)"><g><path d="M 57.296875 -56.75 L 101.4375 -56.75 L 79.1875 -105.328125 Z M 101.0625 -135 L 101.0625 -132.40625 C 98.46875 -132.03125 97.171875 -131.101562 97.171875 -129.625 C 97.171875 -128.632812 97.476562 -127.550781 98.09375 -126.375 C 98.71875 -125.195312 99.335938 -123.867188 99.953125 -122.390625 L 152.609375 -9.640625 C 153.847656 -7.046875 154.835938 -5.222656 155.578125 -4.171875 C 156.316406 -3.117188 157.738281 -2.59375 159.84375 -2.59375 L 159.84375 0 L 122.9375 0 L 122.9375 -2.59375 C 125.164062 -2.59375 126.28125 -3.210938 126.28125 -4.453125 C 126.28125 -5.066406 126.03125 -5.992188 125.53125 -7.234375 C 125.039062 -8.472656 124.363281 -9.957031 123.5 -11.6875 L 112.1875 -35.609375 L 48.578125 -35.609375 C 45.859375 -29.546875 43.632812 -24.660156 41.90625 -20.953125 C 40.175781 -17.242188 38.816406 -14.398438 37.828125 -12.421875 C 36.960938 -10.691406 36.28125 -9.238281 35.78125 -8.0625 C 35.289062 -6.894531 35.046875 -6 35.046875 -5.375 C 35.046875 -3.769531 35.972656 -2.84375 37.828125 -2.59375 L 37.828125 0 L 4.828125 0 L 4.828125 -2.59375 C 6.796875 -2.71875 8.179688 -3.304688 8.984375 -4.359375 C 9.796875 -5.410156 10.757812 -7.171875 11.875 -9.640625 L 62.5 -123.5 C 62.988281 -124.488281 63.445312 -125.476562 63.875 -126.46875 C 64.3125 -127.457031 64.53125 -128.320312 64.53125 -129.0625 C 64.53125 -130.914062 63.234375 -132.03125 60.640625 -132.40625 L 60.640625 -135 Z M 101.0625 -135 "/></g></g></g><g fill="#0f3f6f" fill-opacity="1"><g transform="translate(338.063494, 462.987817)"><g><path d="M 5.375 -139.453125 L 7.96875 -139.453125 C 7.96875 -136.484375 10.070312 -135 14.28125 -135 L 130.171875 -135 C 134.253906 -135 136.296875 -136.484375 136.296875 -139.453125 L 138.890625 -139.453125 L 138.890625 -108.484375 L 136.296875 -108.484375 C 136.296875 -111.566406 134.191406 -113.109375 129.984375 -113.109375 L 85.296875 -113.109375 L 85.296875 -7.78125 C 85.296875 -5.925781 85.664062 -4.597656 86.40625 -3.796875 C 87.15625 -2.992188 88.703125 -2.59375 91.046875 -2.59375 L 91.046875 0 L 53.40625 0 L 53.40625 -2.59375 C 55.75 -2.59375 57.257812 -2.992188 57.9375 -3.796875 C 58.625 -4.597656 58.96875 -5.925781 58.96875 -7.78125 L 58.96875 -113.109375 L 14.28125 -113.109375 C 10.070312 -113.109375 7.96875 -111.566406 7.96875 -108.484375 L 5.375 -108.484375 Z M 5.375 -139.453125 "/></g></g></g><g fill="#0f3f6f" fill-opacity="1"><g transform="translate(482.327627, 462.987817)"><g><path d="M 51.359375 -135 L 51.359375 -132.40625 C 49.140625 -132.40625 47.6875 -132 47 -131.1875 C 46.320312 -130.382812 45.984375 -128.9375 45.984375 -126.84375 L 45.984375 -82.328125 L 129.4375 -82.328125 L 129.4375 -126.84375 C 129.4375 -128.9375 129.125 -130.382812 128.5 -131.1875 C 127.882812 -132 126.34375 -132.40625 123.875 -132.40625 L 123.875 -135 L 160.953125 -135 L 160.953125 -132.40625 C 158.859375 -132.40625 157.46875 -132 156.78125 -131.1875 C 156.101562 -130.382812 155.765625 -128.9375 155.765625 -126.84375 L 155.765625 -8.15625 C 155.765625 -6.050781 156.101562 -4.597656 156.78125 -3.796875 C 157.46875 -2.992188 158.859375 -2.59375 160.953125 -2.59375 L 160.953125 0 L 123.875 0 L 123.875 -2.59375 C 126.21875 -2.59375 127.726562 -2.960938 128.40625 -3.703125 C 129.09375 -4.453125 129.4375 -5.875 129.4375 -7.96875 L 129.4375 -58.96875 L 45.984375 -58.96875 L 45.984375 -8.15625 C 45.984375 -6.175781 46.289062 -4.753906 46.90625 -3.890625 C 47.53125 -3.023438 49.015625 -2.59375 51.359375 -2.59375 L 51.359375 0 L 14.09375 0 L 14.09375 -2.59375 C 16.4375 -2.59375 17.945312 -2.992188 18.625 -3.796875 C 19.3125 -4.597656 19.65625 -6.050781 19.65625 -8.15625 L 19.65625 -126.84375 C 19.65625 -128.9375 19.34375 -130.382812 18.71875 -131.1875 C 18.101562 -132 16.5625 -132.40625 14.09375 -132.40625 L 14.09375 -135 Z M 51.359375 -135 "/></g></g></g><g fill="#0f3f6f" fill-opacity="1"><g transform="translate(657.373011, 462.987817)"><g><path d="M 36.53125 -67.5 C 36.53125 -59.832031 37.828125 -53.0625 40.421875 -47.1875 C 43.015625 -41.320312 46.597656 -36.378906 51.171875 -32.359375 C 55.753906 -28.335938 61.164062 -25.273438 67.40625 -23.171875 C 73.644531 -21.078125 80.351562 -20.03125 87.53125 -20.03125 C 95.070312 -20.03125 101.992188 -21.140625 108.296875 -23.359375 C 114.597656 -25.585938 119.972656 -28.738281 124.421875 -32.8125 C 128.878906 -36.894531 132.34375 -41.875 134.8125 -47.75 C 137.28125 -53.625 138.515625 -60.207031 138.515625 -67.5 C 138.515625 -74.914062 137.25 -81.554688 134.71875 -87.421875 C 132.1875 -93.296875 128.660156 -98.273438 124.140625 -102.359375 C 119.628906 -106.441406 114.222656 -109.5625 107.921875 -111.71875 C 101.617188 -113.882812 94.757812 -114.96875 87.34375 -114.96875 C 80.289062 -114.96875 73.675781 -113.914062 67.5 -111.8125 C 61.320312 -109.71875 55.941406 -106.660156 51.359375 -102.640625 C 46.785156 -98.617188 43.171875 -93.640625 40.515625 -87.703125 C 37.859375 -81.773438 36.53125 -75.039062 36.53125 -67.5 Z M 87.53125 -136.859375 C 98.28125 -136.859375 108.351562 -135.34375 117.75 -132.3125 C 127.144531 -129.28125 135.332031 -124.828125 142.3125 -118.953125 C 149.300781 -113.085938 154.804688 -105.890625 158.828125 -97.359375 C 162.847656 -88.828125 164.859375 -79.0625 164.859375 -68.0625 C 164.859375 -56.1875 162.722656 -45.859375 158.453125 -37.078125 C 154.191406 -28.304688 148.535156 -21.046875 141.484375 -15.296875 C 134.441406 -9.546875 126.285156 -5.25 117.015625 -2.40625 C 107.742188 0.4375 98.097656 1.859375 88.078125 1.859375 C 76.703125 1.859375 66.253906 0.28125 56.734375 -2.875 C 47.222656 -6.03125 39.003906 -10.570312 32.078125 -16.5 C 25.160156 -22.4375 19.785156 -29.671875 15.953125 -38.203125 C 12.117188 -46.734375 10.203125 -56.3125 10.203125 -66.9375 C 10.203125 -78.5625 12.269531 -88.726562 16.40625 -97.4375 C 20.550781 -106.15625 26.144531 -113.453125 33.1875 -119.328125 C 40.238281 -125.203125 48.429688 -129.59375 57.765625 -132.5 C 67.097656 -135.40625 77.019531 -136.859375 87.53125 -136.859375 Z M 87.53125 -136.859375 "/></g></g></g><g fill="#0f3f6f" fill-opacity="1"><g transform="translate(832.418395, 462.987817)"><g><path d="M 51.546875 -135 L 51.546875 -132.40625 C 49.078125 -132.40625 47.53125 -131.972656 46.90625 -131.109375 C 46.289062 -130.242188 45.984375 -128.820312 45.984375 -126.84375 L 45.984375 -21.875 L 131.65625 -21.875 C 135.863281 -21.875 137.96875 -23.359375 137.96875 -26.328125 L 140.5625 -26.328125 L 140.5625 4.078125 L 137.96875 4.078125 C 137.96875 1.359375 135.863281 0 131.65625 0 L 14.828125 0 L 14.828125 -2.59375 C 16.929688 -2.59375 18.257812 -2.992188 18.8125 -3.796875 C 19.375 -4.597656 19.65625 -6.050781 19.65625 -8.15625 L 19.65625 -126.84375 C 19.65625 -128.820312 19.375 -130.242188 18.8125 -131.109375 C 18.257812 -131.972656 16.929688 -132.40625 14.828125 -132.40625 L 14.828125 -135 Z M 51.546875 -135 "/></g></g></g><g fill="#0f3f6f" fill-opacity="1"><g transform="translate(976.682529, 462.987817)"><g><path d="M 36.53125 -67.5 C 36.53125 -59.832031 37.828125 -53.0625 40.421875 -47.1875 C 43.015625 -41.320312 46.597656 -36.378906 51.171875 -32.359375 C 55.753906 -28.335938 61.164062 -25.273438 67.40625 -23.171875 C 73.644531 -21.078125 80.351562 -20.03125 87.53125 -20.03125 C 95.070312 -20.03125 101.992188 -21.140625 108.296875 -23.359375 C 114.597656 -25.585938 119.972656 -28.738281 124.421875 -32.8125 C 128.878906 -36.894531 132.34375 -41.875 134.8125 -47.75 C 137.28125 -53.625 138.515625 -60.207031 138.515625 -67.5 C 138.515625 -74.914062 137.25 -81.554688 134.71875 -87.421875 C 132.1875 -93.296875 128.660156 -98.273438 124.140625 -102.359375 C 119.628906 -106.441406 114.222656 -109.5625 107.921875 -111.71875 C 101.617188 -113.882812 94.757812 -114.96875 87.34375 -114.96875 C 80.289062 -114.96875 73.675781 -113.914062 67.5 -111.8125 C 61.320312 -109.71875 55.941406 -106.660156 51.359375 -102.640625 C 46.785156 -98.617188 43.171875 -93.640625 40.515625 -87.703125 C 37.859375 -81.773438 36.53125 -75.039062 36.53125 -67.5 Z M 87.53125 -136.859375 C 98.28125 -136.859375 108.351562 -135.34375 117.75 -132.3125 C 127.144531 -129.28125 135.332031 -124.828125 142.3125 -118.953125 C 149.300781 -113.085938 154.804688 -105.890625 158.828125 -97.359375 C 162.847656 -88.828125 164.859375 -79.0625 164.859375 -68.0625 C 164.859375 -56.1875 162.722656 -45.859375 158.453125 -37.078125 C 154.191406 -28.304688 148.535156 -21.046875 141.484375 -15.296875 C 134.441406 -9.546875 126.285156 -5.25 117.015625 -2.40625 C 107.742188 0.4375 98.097656 1.859375 88.078125 1.859375 C 76.703125 1.859375 66.253906 0.28125 56.734375 -2.875 C 47.222656 -6.03125 39.003906 -10.570312 32.078125 -16.5 C 25.160156 -22.4375 19.785156 -29.671875 15.953125 -38.203125 C 12.117188 -46.734375 10.203125 -56.3125 10.203125 -66.9375 C 10.203125 -78.5625 12.269531 -88.726562 16.40625 -97.4375 C 20.550781 -106.15625 26.144531 -113.453125 33.1875 -119.328125 C 40.238281 -125.203125 48.429688 -129.59375 57.765625 -132.5 C 67.097656 -135.40625 77.019531 -136.859375 87.53125 -136.859375 Z M 87.53125 -136.859375 "/></g></g></g><g fill="#0f3f6f" fill-opacity="1"><g transform="translate(1151.727913, 462.987817)"><g><path d="M 92.53125 -136.859375 C 100.320312 -136.859375 108.484375 -135.988281 117.015625 -134.25 C 125.546875 -132.519531 134.070312 -129.679688 142.59375 -125.734375 C 147.414062 -123.503906 150.382812 -122.390625 151.5 -122.390625 C 153.101562 -122.390625 154.34375 -123.066406 155.21875 -124.421875 L 157.8125 -123.3125 L 139.8125 -92.90625 L 137.21875 -94.578125 C 137.46875 -95.804688 137.59375 -96.851562 137.59375 -97.71875 C 137.59375 -99.207031 136.351562 -100.96875 133.875 -103 C 131.40625 -105.039062 128.128906 -106.925781 124.046875 -108.65625 C 119.972656 -110.394531 115.273438 -111.878906 109.953125 -113.109375 C 104.640625 -114.347656 99.140625 -114.96875 93.453125 -114.96875 C 85.421875 -114.96875 77.910156 -113.976562 70.921875 -112 C 63.941406 -110.019531 57.914062 -107.082031 52.84375 -103.1875 C 47.78125 -99.300781 43.796875 -94.453125 40.890625 -88.640625 C 37.984375 -82.828125 36.53125 -76.023438 36.53125 -68.234375 C 36.53125 -60.328125 37.921875 -53.375 40.703125 -47.375 C 43.484375 -41.382812 47.285156 -36.347656 52.109375 -32.265625 C 56.929688 -28.179688 62.617188 -25.117188 69.171875 -23.078125 C 75.722656 -21.046875 82.769531 -20.03125 90.3125 -20.03125 C 98.59375 -20.03125 106.378906 -21.046875 113.671875 -23.078125 C 120.960938 -25.117188 127.390625 -28.117188 132.953125 -32.078125 L 132.953125 -47.46875 L 100.875 -47.46875 C 99.394531 -47.46875 98.066406 -47.097656 96.890625 -46.359375 C 95.710938 -45.617188 95.125 -44.503906 95.125 -43.015625 L 92.53125 -43.015625 L 92.53125 -75.65625 L 95.125 -75.65625 C 95.125 -74.175781 95.710938 -73.0625 96.890625 -72.3125 C 98.066406 -71.570312 99.394531 -71.203125 100.875 -71.203125 L 162.8125 -71.203125 L 162.8125 -68.609375 C 160.46875 -68.242188 159.296875 -66.328125 159.296875 -62.859375 L 159.296875 -26.140625 C 159.296875 -24.910156 159.507812 -23.890625 159.9375 -23.078125 C 160.375 -22.273438 161.269531 -21.753906 162.625 -21.515625 L 162.625 -18.921875 C 151.375 -12.484375 139.472656 -7.410156 126.921875 -3.703125 C 114.378906 0.00390625 102.175781 1.859375 90.3125 1.859375 C 78.320312 1.859375 67.410156 0.3125 57.578125 -2.78125 C 47.753906 -5.875 39.316406 -10.382812 32.265625 -16.3125 C 25.222656 -22.25 19.785156 -29.484375 15.953125 -38.015625 C 12.117188 -46.546875 10.203125 -56.1875 10.203125 -66.9375 C 10.203125 -75.226562 11.375 -82.707031 13.71875 -89.375 C 16.070312 -96.050781 19.253906 -101.984375 23.265625 -107.171875 C 27.285156 -112.367188 32.015625 -116.851562 37.453125 -120.625 C 42.898438 -124.394531 48.648438 -127.484375 54.703125 -129.890625 C 60.765625 -132.304688 67.039062 -134.070312 73.53125 -135.1875 C 80.019531 -136.300781 86.351562 -136.859375 92.53125 -136.859375 Z M 92.53125 -136.859375 "/></g></g></g><g fill="#0f3f6f" fill-opacity="1"><g transform="translate(1326.773297, 462.987817)"><g><path d="M 45.25 -135 L 45.25 -132.40625 C 44.507812 -132.40625 43.921875 -132.21875 43.484375 -131.84375 C 43.054688 -131.476562 42.84375 -131.109375 42.84375 -130.734375 C 42.84375 -130.117188 43.210938 -129.316406 43.953125 -128.328125 L 78.4375 -80.84375 L 111.453125 -125.734375 C 112.066406 -126.472656 112.648438 -127.273438 113.203125 -128.140625 C 113.765625 -129.003906 114.046875 -129.617188 114.046875 -129.984375 C 114.046875 -130.609375 113.765625 -131.132812 113.203125 -131.5625 C 112.648438 -132 112.066406 -132.28125 111.453125 -132.40625 L 111.453125 -135 L 149.46875 -135 L 149.46875 -132.40625 C 147.488281 -132.28125 145.691406 -131.535156 144.078125 -130.171875 C 142.472656 -128.816406 141.050781 -127.273438 139.8125 -125.546875 L 91.421875 -58.234375 L 91.421875 -7.96875 C 91.421875 -5.988281 91.726562 -4.597656 92.34375 -3.796875 C 92.96875 -2.992188 94.207031 -2.59375 96.0625 -2.59375 L 96.0625 0 L 60.640625 0 L 60.640625 -2.59375 C 62.492188 -2.59375 63.695312 -2.992188 64.25 -3.796875 C 64.8125 -4.597656 65.09375 -5.988281 65.09375 -7.96875 L 65.09375 -58.234375 L 12.984375 -127.03125 C 11.367188 -129.125 10.066406 -130.507812 9.078125 -131.1875 C 8.097656 -131.875 6.738281 -132.28125 5 -132.40625 L 5 -135 Z M 45.25 -135 "/></g></g></g></svg>