<svg xmlns="http://www.w3.org/2000/svg" xmlns:xlink="http://www.w3.org/1999/xlink" width="375" zoomAndPan="magnify" viewBox="0 0 281.25 281.249989" height="375" preserveAspectRatio="xMidYMid meet" version="1.0"><defs><clipPath id="2a5e944ed2"><path d="M 51.613281 42.878906 L 228 42.878906 L 228 243.851562 L 51.613281 243.851562 Z M 51.613281 42.878906 " clip-rule="nonzero"/></clipPath></defs><g clip-path="url(#2a5e944ed2)"><path fill="#0f3f6f" d="M 195.519531 179.140625 C 190.441406 174.058594 198.144531 166.308594 203.234375 171.410156 C 206.039062 174.214844 205.011719 179.011719 201.296875 180.414062 Z M 98.8125 88.21875 C 93.742188 83.144531 101.453125 75.398438 106.523438 80.488281 C 111.613281 85.578125 103.898438 93.304688 98.8125 88.21875 Z M 72.855469 185.316406 C 62.996094 178.699219 72.195312 163.308594 82.726562 169.230469 C 84.152344 170.035156 85.347656 171.183594 86.179688 172.554688 C 91.382812 181.125 81.167969 190.894531 72.855469 185.316406 Z M 167.234375 90.910156 L 167.136719 90.769531 C 166.847656 90.332031 166.613281 89.84375 166.472656 89.324219 C 165.566406 86.320312 167.617188 83.882812 167.835938 83.882812 C 169.558594 82.15625 172.242188 81.78125 174.363281 82.972656 C 175.183594 83.433594 175.871094 84.09375 176.351562 84.894531 L 176.523438 85.175781 C 177.550781 87.390625 177.363281 89.785156 175.546875 91.601562 C 175.542969 92.144531 170.527344 95.257812 167.234375 90.910156 Z M 134.207031 103.234375 L 128.753906 103.234375 L 128.753906 97.867188 L 150.546875 97.867188 L 150.546875 103.234375 L 145.105469 103.234375 L 145.105469 133.03125 L 173.671875 162.164062 C 169.839844 166.394531 165.8125 170.648438 161.617188 174.890625 C 155.671875 177.351562 150.128906 178.945312 145.652344 178.164062 C 138.582031 176.933594 134.207031 169.78125 129.097656 168.25 C 124.917969 166.992188 120.257812 169.488281 115.503906 172.667969 C 112.09375 169.167969 108.800781 165.671875 105.644531 162.179688 L 134.207031 133.03125 Z M 101.011719 156.972656 C 87.316406 141.285156 76.34375 126.050781 68.980469 112.847656 C 47.855469 74.96875 60.292969 66.726562 90.550781 81.679688 C 87.402344 95.789062 106.929688 102.75 113.625 90.195312 C 120.328125 77.625 103.910156 65.5625 93.886719 75.582031 C 82.503906 69.925781 64.785156 63.152344 55.976562 71.964844 C 48.386719 79.566406 51.59375 95.925781 62.914062 116.222656 C 78.175781 143.589844 105.855469 175.277344 134.304688 200.066406 C 120.394531 211.671875 107.027344 221.007812 95.328125 227.394531 C 78.679688 236.488281 65.972656 239.632812 60.984375 234.65625 C 53.417969 227.082031 66.046875 202.921875 72.195312 192.757812 C 78.292969 195.140625 85.140625 193.609375 89.683594 189.066406 C 100.03125 178.71875 92.617188 161.050781 78.101562 161.050781 C 63.6875 161.050781 56.25 178.542969 66.390625 188.925781 C 58.109375 202.574219 44.9375 228.289062 55.941406 239.449219 L 56.054688 239.578125 C 63.496094 247.027344 79.15625 244.144531 98.644531 233.496094 C 110.96875 226.761719 125.0625 216.902344 139.652344 204.644531 C 153.628906 216.359375 167.152344 225.867188 179.109375 232.546875 C 199.386719 243.882812 215.730469 247.089844 223.320312 239.492188 C 235.488281 227.316406 218.617188 197.742188 209.007812 183.101562 C 217.351562 172.832031 205.765625 158.152344 193.800781 164.179688 C 192.0625 165.058594 190.558594 166.324219 189.40625 167.859375 C 182.242188 177.476562 191.726562 190.933594 203.289062 187.066406 C 210.960938 198.78125 216.339844 209.375 218.917969 217.9375 C 226.800781 244.171875 205.882812 239.546875 182.484375 226.46875 C 171.160156 220.136719 158.332031 211.144531 145.015625 200.046875 C 173.113281 175.523438 200.910156 143.976562 216.390625 116.222656 C 227.710938 95.921875 230.917969 79.5625 223.328125 71.964844 C 213.535156 62.164062 192.476562 71.800781 180.148438 78.632812 C 175.265625 74.078125 167.644531 74.191406 162.910156 78.945312 C 159.703125 82.160156 158.457031 86.886719 159.808594 91.335938 L 163.78125 97.316406 C 168.675781 101.367188 175.894531 101.085938 180.472656 96.523438 C 183.628906 93.363281 184.773438 89.035156 183.707031 84.59375 C 192.296875 79.847656 199.941406 76.683594 206.167969 75.386719 C 228.109375 70.816406 221.886719 92.097656 210.316406 112.847656 C 202.953125 126.042969 191.988281 141.273438 178.296875 156.953125 L 152.070312 130.207031 L 152.070312 110.207031 L 157.511719 110.207031 L 157.511719 90.886719 L 121.785156 90.886719 L 121.785156 110.207031 L 127.238281 110.207031 L 127.238281 130.207031 Z M 132.578125 178.632812 C 134.742188 178.632812 136.492188 180.390625 136.492188 182.554688 C 136.492188 184.71875 134.742188 186.472656 132.578125 186.472656 C 130.414062 186.472656 128.664062 184.714844 128.664062 182.554688 C 128.664062 180.390625 130.414062 178.632812 132.578125 178.632812 Z M 130.277344 63.636719 C 133.457031 63.636719 136.039062 66.222656 136.039062 69.402344 C 136.039062 72.589844 133.457031 75.171875 130.277344 75.171875 C 127.097656 75.171875 124.515625 72.589844 124.515625 69.402344 C 124.515625 66.222656 127.097656 63.636719 130.277344 63.636719 Z M 149.289062 42.878906 C 153.617188 42.878906 157.125 46.390625 157.125 50.722656 C 157.125 55.050781 153.617188 58.5625 149.289062 58.5625 C 144.964844 58.5625 141.453125 55.050781 141.453125 50.722656 C 141.457031 46.386719 144.964844 42.878906 149.289062 42.878906 Z M 146.867188 157.640625 C 149.027344 157.640625 150.78125 159.398438 150.78125 161.558594 C 150.78125 163.726562 149.027344 165.480469 146.867188 165.480469 C 144.703125 165.480469 142.949219 163.726562 142.949219 161.558594 C 142.949219 159.398438 144.703125 157.640625 146.867188 157.640625 Z M 146.867188 157.640625 " fill-opacity="1" fill-rule="evenodd"/></g></svg>