<svg xmlns="http://www.w3.org/2000/svg" viewBox="0 0 114.68 81.6"><defs><style>.cls-1{fill:#0071bc;}</style></defs><g id="Layer_2" data-name="Layer 2"><g id="Layer_1-2" data-name="Layer 1"><path class="cls-1" d="M76.1,45.44a57.86,57.86,0,0,0-8.94-2.5,3.8,3.8,0,0,0-3.53.91C61,46,56.47,46.46,54,44.46c-2.32-1.85-4.49-1.65-7-1A45.88,45.88,0,0,0,39.41,46a14.07,14.07,0,0,0-8.56,10.6c-.58,3.13-.77,6.33-1.33,9.46-1.06,5.93,1.77,9.5,6.88,11.78,1.26.56,2.53,1.1,3.83,1.54,5.89,2,12,2.32,18.12,2.16,3.7-.07,7.41.19,11.07-.54,5.43-1.09,10.81-2.23,15.2-6a6.56,6.56,0,0,0,2.55-5.37,65.11,65.11,0,0,0-1.06-12.07C85,51.76,81.73,47.63,76.1,45.44Z"/><path class="cls-1" d="M59.49,3.4c-7-.54-13.17,2.23-15.39,7.67-3.29,8.05-3.33,16.2,1.49,23.75C51.43,44,62.85,44.64,69.9,36.4A20.4,20.4,0,0,0,74.63,22c0-.94.06-1.89,0-2.84C73.85,8.92,69.27,4.14,59.49,3.4Z"/><path class="cls-1" d="M27,29.19a3.29,3.29,0,0,0-1.63.68c-2.73,1.69-5.47,1.88-8.19,0A3.18,3.18,0,0,0,15,29.18c-9.26.67-14.49,6-15,15.21,0,.77,0,1.55,0,2.32C0,52,1.06,53.56,6,55.57A33.61,33.61,0,0,0,11.9,57.3c3.4.71,6.87.31,10.07.82,1.58-.12,3-.3,4.33-.32a2.67,2.67,0,0,0,2.78-2.18A17.64,17.64,0,0,1,40.4,43.45c1.37-.51,1.75-1.3,1.47-2.77C40.66,34.13,33.85,28.84,27,29.19Z"/><path class="cls-1" d="M114.06,42.55c-.44-6.41-3.16-10-9.23-11.94-1.55-.51-3.18-.77-4.75-1.23A3.16,3.16,0,0,0,97,30a5.49,5.49,0,0,1-6.34.57c-3.12-2.08-5.88-.91-8.81-.07-4.56,1.3-7.65,4.06-9,8.73-.59,2,0,3,1.94,3.65,6.65,2,11.18,6.26,13,13.15.28,1.08.72,2,2,2,7.09.05,14.17-.06,20.66-3.43,2.73-1.41,4.95-3.3,4.14-6.93C114.36,46,114.17,44.27,114.06,42.55Z"/><path class="cls-1" d="M32.52,7.55C31,2.6,27.12.05,21.17.06S11.35,2.51,9.93,7.59a21.78,21.78,0,0,0,0,12c1.47,5.17,6,8.92,10.67,9.2s9.18-2.84,11.3-7.59a16,16,0,0,0,1.47-7.53A17.75,17.75,0,0,0,32.52,7.55Z"/><path class="cls-1" d="M104.68,8.28c-1-4.59-4.53-7.63-9.45-8.17-6-.65-11.06,1.6-12.78,6.09-2.07,5.44-2.11,11,.72,16.22,4.29,8,14.3,8.46,19.46,1a15,15,0,0,0,2.6-9.68A19.16,19.16,0,0,0,104.68,8.28Z"/></g></g></svg>