<svg xmlns="http://www.w3.org/2000/svg" xmlns:xlink="http://www.w3.org/1999/xlink" width="2000" zoomAndPan="magnify" viewBox="0 0 1500 843.749997" height="1125" preserveAspectRatio="xMidYMid meet" version="1.0"><defs><clipPath id="05c650a7f0"><path d="M 627 84.351562 L 703 84.351562 L 703 135 L 627 135 Z M 627 84.351562 " clip-rule="nonzero"/></clipPath><clipPath id="0b1cf92ca8"><path d="M 613 714 L 965.613281 714 L 965.613281 775.644531 L 613 775.644531 Z M 613 714 " clip-rule="nonzero"/></clipPath></defs><g clip-path="url(#05c650a7f0)"><path fill="#004aad" d="M 636.894531 134.523438 L 702.488281 106.242188 L 693.234375 84.84375 L 627.640625 113.125 Z M 692.710938 102.359375 L 640.789062 124.75 L 637.425781 116.945312 L 689.300781 94.554688 Z M 692.710938 102.359375 " fill-opacity="1" fill-rule="nonzero"/></g><path fill="#004aad" d="M 669.839844 192.4375 L 722.097656 169.914062 L 695.503906 108.261719 L 643.269531 130.738281 Z M 709.050781 164.726562 L 675.023438 179.390625 L 656.304688 135.972656 L 690.332031 121.300781 Z M 709.050781 164.726562 " fill-opacity="1" fill-rule="nonzero"/><path fill="#004aad" d="M 667.234375 226.351562 L 749.808594 192.214844 L 742.613281 186.199219 L 716.105469 163.871094 L 668.375 184.152344 Z M 735.617188 190.03125 L 674.972656 215.089844 L 675.65625 189.140625 L 714.816406 172.53125 Z M 735.617188 190.03125 " fill-opacity="1" fill-rule="nonzero"/><path fill="#004aad" d="M 783.984375 454.332031 L 829.878906 435.476562 L 833.539062 402.21875 L 832.296875 394.316406 L 750.082031 427.910156 Z M 820.710938 428.53125 L 785.546875 442.957031 L 769.742188 430.613281 L 822.871094 408.894531 Z M 820.710938 428.53125 " fill-opacity="1" fill-rule="nonzero"/><path fill="#004aad" d="M 810.863281 519.625 L 859.585938 498.277344 L 829.902344 427.574219 L 780.125 448.003906 Z M 846.664062 493.105469 L 816.046875 506.589844 L 793.222656 453.375 L 824.507812 440.449219 Z M 846.664062 493.105469 " fill-opacity="1" fill-rule="nonzero"/><path fill="#004aad" d="M 828.144531 546.394531 L 862.15625 531.511719 L 860.542969 503.675781 L 860.542969 496.082031 L 808.285156 518.992188 Z M 851.796875 525.195312 L 831.441406 534.101562 L 823.492188 523.136719 L 850.953125 511.105469 Z M 851.796875 525.195312 " fill-opacity="1" fill-rule="nonzero"/><path fill="#004aad" d="M 734.242188 602.996094 L 915.554688 602.996094 L 915.554688 572.828125 L 734.242188 572.828125 Z M 903.152344 590.589844 L 746.644531 590.589844 L 746.644531 585.234375 L 903.152344 585.234375 Z M 903.152344 590.589844 " fill-opacity="1" fill-rule="nonzero"/><path fill="#004aad" d="M 689.300781 304.089844 C 690.355469 304.078125 691.40625 304.015625 692.453125 303.902344 C 693.5 303.789062 694.542969 303.625 695.574219 303.40625 C 696.605469 303.191406 697.621094 302.925781 698.628906 302.609375 C 699.632812 302.292969 700.621094 301.929688 701.589844 301.515625 C 702.5625 301.105469 703.507812 300.644531 704.433594 300.140625 C 705.359375 299.636719 706.257812 299.085938 707.125 298.492188 C 707.996094 297.898438 708.835938 297.265625 709.644531 296.589844 C 710.457031 295.914062 711.230469 295.199219 711.96875 294.445312 C 712.707031 293.695312 713.40625 292.910156 714.070312 292.089844 C 714.730469 291.269531 715.351562 290.417969 715.929688 289.535156 C 716.507812 288.65625 717.039062 287.75 717.53125 286.816406 C 718.019531 285.882812 718.460938 284.925781 718.859375 283.949219 C 719.253906 282.972656 719.601562 281.980469 719.898438 280.96875 C 720.195312 279.957031 720.445312 278.933594 720.644531 277.898438 C 720.839844 276.863281 720.988281 275.820312 721.082031 274.773438 C 721.179688 273.722656 721.222656 272.671875 721.214844 271.617188 C 721.210938 270.5625 721.152344 269.511719 721.039062 268.464844 C 720.929688 267.417969 720.769531 266.375 720.554688 265.34375 C 720.34375 264.3125 720.082031 263.292969 719.769531 262.285156 C 719.457031 261.277344 719.097656 260.289062 718.6875 259.320312 C 718.277344 258.347656 717.824219 257.398438 717.320312 256.472656 C 716.816406 255.546875 716.273438 254.644531 715.679688 253.773438 C 715.089844 252.898438 714.460938 252.058594 713.785156 251.246094 C 713.113281 250.433594 712.402344 249.660156 711.652344 248.917969 C 710.902344 248.175781 710.121094 247.472656 709.300781 246.808594 C 708.484375 246.144531 707.636719 245.519531 706.757812 244.941406 C 705.878906 244.359375 704.972656 243.820312 704.039062 243.328125 C 703.109375 242.835938 702.15625 242.390625 701.179688 241.992188 C 700.203125 241.59375 699.210938 241.242188 698.203125 240.941406 C 697.191406 240.636719 696.171875 240.386719 695.136719 240.183594 C 694.101562 239.984375 693.058594 239.832031 692.011719 239.734375 C 690.960938 239.632812 689.910156 239.585938 688.855469 239.589844 C 687.800781 239.59375 686.75 239.648438 685.703125 239.753906 C 684.652344 239.859375 683.613281 240.019531 682.578125 240.226562 C 681.546875 240.4375 680.527344 240.695312 679.519531 241.003906 C 678.511719 241.3125 677.519531 241.667969 676.546875 242.074219 C 675.574219 242.480469 674.625 242.933594 673.695312 243.433594 C 672.769531 243.929688 671.867188 244.476562 670.992188 245.0625 C 670.117188 245.648438 669.273438 246.277344 668.460938 246.949219 C 667.644531 247.617188 666.867188 248.328125 666.121094 249.074219 C 665.378906 249.820312 664.671875 250.601562 664.003906 251.417969 C 663.339844 252.230469 662.710938 253.078125 662.128906 253.957031 C 661.542969 254.832031 661.003906 255.738281 660.507812 256.667969 C 660.011719 257.597656 659.5625 258.546875 659.160156 259.523438 C 658.757812 260.496094 658.402344 261.488281 658.097656 262.496094 C 657.792969 263.503906 657.539062 264.527344 657.332031 265.558594 C 657.128906 266.59375 656.972656 267.636719 656.871094 268.683594 C 656.765625 269.734375 656.714844 270.785156 656.714844 271.839844 C 656.722656 272.898438 656.78125 273.957031 656.890625 275.015625 C 657.003906 276.070312 657.164062 277.117188 657.378906 278.15625 C 657.589844 279.195312 657.855469 280.222656 658.167969 281.238281 C 658.484375 282.25 658.847656 283.246094 659.257812 284.226562 C 659.671875 285.203125 660.128906 286.160156 660.632812 287.09375 C 661.140625 288.023438 661.691406 288.929688 662.285156 289.8125 C 662.878906 290.691406 663.515625 291.539062 664.191406 292.355469 C 664.871094 293.171875 665.585938 293.953125 666.339844 294.699219 C 667.09375 295.445312 667.886719 296.15625 668.707031 296.824219 C 669.53125 297.492188 670.386719 298.121094 671.273438 298.707031 C 672.15625 299.292969 673.070312 299.832031 674.007812 300.328125 C 674.945312 300.824219 675.90625 301.273438 676.890625 301.675781 C 677.871094 302.074219 678.871094 302.429688 679.886719 302.734375 C 680.90625 303.035156 681.933594 303.289062 682.976562 303.492188 C 684.019531 303.695312 685.066406 303.847656 686.125 303.945312 C 687.179688 304.046875 688.238281 304.09375 689.300781 304.089844 Z M 689.300781 251.992188 C 689.949219 252.003906 690.59375 252.042969 691.238281 252.117188 C 691.882812 252.191406 692.519531 252.296875 693.152344 252.433594 C 693.785156 252.570312 694.410156 252.738281 695.027344 252.9375 C 695.644531 253.132812 696.25 253.363281 696.84375 253.617188 C 697.4375 253.875 698.019531 254.160156 698.585938 254.476562 C 699.152344 254.789062 699.703125 255.128906 700.234375 255.496094 C 700.769531 255.867188 701.28125 256.257812 701.777344 256.675781 C 702.269531 257.09375 702.746094 257.535156 703.195312 258 C 703.648438 258.464844 704.074219 258.949219 704.480469 259.457031 C 704.882812 259.960938 705.261719 260.488281 705.613281 261.03125 C 705.964844 261.574219 706.292969 262.132812 706.589844 262.707031 C 706.886719 263.28125 707.15625 263.871094 707.398438 264.472656 C 707.636719 265.074219 707.847656 265.6875 708.027344 266.308594 C 708.207031 266.929688 708.359375 267.558594 708.476562 268.195312 C 708.59375 268.832031 708.683594 269.472656 708.738281 270.117188 C 708.792969 270.765625 708.820312 271.410156 708.8125 272.058594 C 708.804688 272.707031 708.765625 273.351562 708.695312 273.996094 C 708.625 274.640625 708.523438 275.277344 708.390625 275.910156 C 708.257812 276.546875 708.09375 277.171875 707.898438 277.789062 C 707.703125 278.40625 707.480469 279.015625 707.226562 279.609375 C 706.972656 280.207031 706.691406 280.789062 706.378906 281.355469 C 706.070312 281.925781 705.730469 282.476562 705.367188 283.011719 C 705.003906 283.546875 704.613281 284.0625 704.199219 284.558594 C 703.78125 285.054688 703.34375 285.53125 702.882812 285.984375 C 702.421875 286.441406 701.9375 286.871094 701.433594 287.277344 C 700.929688 287.683594 700.40625 288.066406 699.867188 288.421875 C 699.324219 288.777344 698.765625 289.105469 698.195312 289.40625 C 697.621094 289.707031 697.035156 289.980469 696.433594 290.222656 C 695.832031 290.46875 695.222656 290.679688 694.601562 290.867188 C 693.980469 291.050781 693.351562 291.203125 692.714844 291.324219 C 692.082031 291.445312 691.441406 291.539062 690.796875 291.597656 C 690.152344 291.65625 689.503906 291.6875 688.855469 291.683594 C 688.207031 291.679688 687.5625 291.644531 686.917969 291.578125 C 686.273438 291.507812 685.636719 291.410156 685 291.28125 C 684.367188 291.152344 683.738281 290.992188 683.121094 290.800781 C 682.5 290.609375 681.894531 290.390625 681.296875 290.140625 C 680.699219 289.890625 680.113281 289.609375 679.542969 289.304688 C 678.976562 288.996094 678.421875 288.660156 677.882812 288.300781 C 677.347656 287.9375 676.828125 287.550781 676.328125 287.140625 C 675.828125 286.726562 675.351562 286.289062 674.894531 285.832031 C 674.4375 285.371094 674.003906 284.890625 673.59375 284.390625 C 673.183594 283.886719 672.800781 283.367188 672.441406 282.828125 C 672.082031 282.289062 671.753906 281.734375 671.449219 281.164062 C 671.144531 280.589844 670.867188 280.003906 670.621094 279.40625 C 670.375 278.808594 670.15625 278.199219 669.96875 277.578125 C 669.78125 276.960938 669.625 276.332031 669.5 275.695312 C 669.371094 275.0625 669.277344 274.421875 669.214844 273.777344 C 669.152344 273.132812 669.121094 272.484375 669.121094 271.839844 C 669.125 271.183594 669.164062 270.53125 669.234375 269.878906 C 669.304688 269.226562 669.40625 268.582031 669.542969 267.9375 C 669.675781 267.296875 669.839844 266.664062 670.035156 266.039062 C 670.234375 265.414062 670.457031 264.800781 670.714844 264.195312 C 670.972656 263.59375 671.257812 263.003906 671.570312 262.429688 C 671.882812 261.855469 672.226562 261.296875 672.59375 260.753906 C 672.964844 260.210938 673.359375 259.691406 673.777344 259.1875 C 674.199219 258.683594 674.640625 258.203125 675.109375 257.742188 C 675.574219 257.285156 676.066406 256.847656 676.574219 256.4375 C 677.085938 256.027344 677.613281 255.640625 678.160156 255.28125 C 678.707031 254.921875 679.273438 254.589844 679.851562 254.285156 C 680.433594 253.980469 681.027344 253.703125 681.632812 253.457031 C 682.242188 253.210938 682.859375 252.996094 683.488281 252.8125 C 684.117188 252.625 684.75 252.472656 685.394531 252.347656 C 686.039062 252.226562 686.6875 252.132812 687.339844 252.074219 C 687.992188 252.015625 688.644531 251.988281 689.300781 251.992188 Z M 689.300781 251.992188 " fill-opacity="1" fill-rule="nonzero"/><path fill="#004aad" d="M 702.214844 693.449219 C 702.972656 693.449219 703.730469 693.410156 704.488281 693.335938 C 705.242188 693.261719 705.992188 693.152344 706.738281 693.003906 C 707.480469 692.855469 708.214844 692.671875 708.941406 692.449219 C 709.667969 692.230469 710.382812 691.972656 711.085938 691.683594 C 711.785156 691.390625 712.472656 691.066406 713.140625 690.710938 C 713.8125 690.351562 714.460938 689.960938 715.09375 689.539062 C 715.722656 689.117188 716.332031 688.664062 716.917969 688.183594 C 717.507812 687.703125 718.066406 687.191406 718.605469 686.65625 C 719.140625 686.117188 719.648438 685.554688 720.132812 684.96875 C 720.613281 684.382812 721.066406 683.773438 721.484375 683.140625 C 721.90625 682.511719 722.296875 681.859375 722.65625 681.191406 C 723.011719 680.519531 723.335938 679.835938 723.625 679.132812 C 723.917969 678.429688 724.171875 677.71875 724.390625 676.992188 C 724.613281 676.261719 724.796875 675.527344 724.941406 674.78125 C 725.089844 674.039062 725.203125 673.289062 725.273438 672.53125 C 725.347656 671.777344 725.386719 671.019531 725.386719 670.261719 C 725.386719 669.5 725.347656 668.742188 725.273438 667.988281 C 725.195312 667.234375 725.085938 666.484375 724.9375 665.738281 C 724.789062 664.992188 724.601562 664.257812 724.382812 663.53125 C 724.160156 662.804688 723.90625 662.089844 723.613281 661.390625 C 723.324219 660.6875 722.996094 660.003906 722.640625 659.335938 C 722.28125 658.664062 721.890625 658.015625 721.46875 657.382812 C 721.046875 656.753906 720.59375 656.144531 720.109375 655.558594 C 719.628906 654.972656 719.117188 654.410156 718.582031 653.875 C 718.042969 653.339844 717.480469 652.828125 716.894531 652.347656 C 716.304688 651.867188 715.695312 651.417969 715.066406 650.996094 C 714.433594 650.574219 713.78125 650.1875 713.113281 649.828125 C 712.441406 649.472656 711.757812 649.148438 711.054688 648.859375 C 710.351562 648.570312 709.636719 648.3125 708.910156 648.09375 C 708.183594 647.875 707.449219 647.691406 706.703125 647.542969 C 705.960938 647.398438 705.210938 647.289062 704.453125 647.214844 C 703.699219 647.140625 702.941406 647.105469 702.179688 647.105469 C 701.421875 647.105469 700.664062 647.144531 699.910156 647.21875 C 699.152344 647.296875 698.402344 647.410156 697.660156 647.558594 C 696.914062 647.707031 696.179688 647.890625 695.453125 648.113281 C 694.726562 648.335938 694.011719 648.59375 693.3125 648.882812 C 692.613281 649.175781 691.925781 649.5 691.257812 649.859375 C 690.589844 650.21875 689.9375 650.609375 689.308594 651.03125 C 688.675781 651.457031 688.070312 651.90625 687.484375 652.390625 C 686.898438 652.875 686.335938 653.382812 685.800781 653.921875 C 685.265625 654.460938 684.757812 655.023438 684.277344 655.609375 C 683.796875 656.199219 683.34375 656.808594 682.921875 657.441406 C 682.503906 658.070312 682.113281 658.722656 681.757812 659.394531 C 681.402344 660.0625 681.078125 660.75 680.789062 661.453125 C 680.5 662.152344 680.246094 662.867188 680.027344 663.59375 C 679.808594 664.320312 679.625 665.058594 679.480469 665.804688 C 679.332031 666.546875 679.222656 667.296875 679.148438 668.054688 C 679.078125 668.808594 679.042969 669.566406 679.042969 670.328125 C 679.046875 671.085938 679.085938 671.839844 679.160156 672.59375 C 679.238281 673.347656 679.351562 674.09375 679.5 674.839844 C 679.652344 675.582031 679.835938 676.3125 680.058594 677.039062 C 680.28125 677.761719 680.535156 678.476562 680.828125 679.175781 C 681.117188 679.875 681.445312 680.558594 681.800781 681.226562 C 682.160156 681.890625 682.550781 682.539062 682.972656 683.171875 C 683.394531 683.800781 683.847656 684.40625 684.328125 684.992188 C 684.808594 685.578125 685.316406 686.136719 685.855469 686.671875 C 686.390625 687.207031 686.953125 687.714844 687.539062 688.195312 C 688.125 688.675781 688.730469 689.125 689.363281 689.546875 C 689.992188 689.964844 690.640625 690.355469 691.308594 690.710938 C 691.976562 691.070312 692.664062 691.390625 693.363281 691.683594 C 694.0625 691.972656 694.773438 692.226562 695.5 692.449219 C 696.222656 692.667969 696.957031 692.851562 697.703125 693 C 698.445312 693.148438 699.191406 693.257812 699.945312 693.335938 C 700.699219 693.410156 701.457031 693.445312 702.214844 693.449219 Z M 702.214844 659.511719 C 702.921875 659.511719 703.621094 659.578125 704.316406 659.714844 C 705.007812 659.855469 705.679688 660.058594 706.335938 660.328125 C 706.988281 660.601562 707.609375 660.933594 708.195312 661.324219 C 708.785156 661.71875 709.328125 662.164062 709.828125 662.664062 C 710.328125 663.164062 710.773438 663.707031 711.167969 664.296875 C 711.558594 664.882812 711.890625 665.503906 712.160156 666.15625 C 712.433594 666.808594 712.636719 667.484375 712.773438 668.175781 C 712.914062 668.871094 712.980469 669.570312 712.980469 670.277344 C 712.980469 670.984375 712.914062 671.683594 712.773438 672.378906 C 712.636719 673.070312 712.433594 673.742188 712.160156 674.398438 C 711.890625 675.050781 711.558594 675.671875 711.167969 676.257812 C 710.773438 676.847656 710.328125 677.390625 709.828125 677.890625 C 709.328125 678.390625 708.785156 678.835938 708.195312 679.230469 C 707.609375 679.621094 706.988281 679.953125 706.335938 680.222656 C 705.679688 680.496094 705.007812 680.699219 704.316406 680.835938 C 703.621094 680.976562 702.921875 681.042969 702.214844 681.042969 C 701.507812 681.042969 700.808594 680.976562 700.113281 680.835938 C 699.421875 680.699219 698.746094 680.496094 698.09375 680.222656 C 697.441406 679.953125 696.820312 679.621094 696.234375 679.230469 C 695.644531 678.835938 695.101562 678.390625 694.601562 677.890625 C 694.101562 677.390625 693.65625 676.847656 693.261719 676.257812 C 692.871094 675.671875 692.539062 675.050781 692.265625 674.398438 C 691.996094 673.742188 691.792969 673.070312 691.652344 672.378906 C 691.515625 671.683594 691.449219 670.984375 691.449219 670.277344 C 691.449219 669.570312 691.519531 668.871094 691.65625 668.179688 C 691.796875 667.484375 692.003906 666.8125 692.273438 666.160156 C 692.542969 665.507812 692.875 664.886719 693.269531 664.300781 C 693.664062 663.714844 694.109375 663.171875 694.609375 662.671875 C 695.109375 662.171875 695.652344 661.726562 696.238281 661.332031 C 696.824219 660.9375 697.445312 660.605469 698.097656 660.335938 C 698.75 660.066406 699.421875 659.859375 700.117188 659.722656 C 700.808594 659.582031 701.507812 659.511719 702.214844 659.511719 Z M 702.214844 659.511719 " fill-opacity="1" fill-rule="nonzero"/><g clip-path="url(#0b1cf92ca8)"><path fill="#004aad" d="M 613.410156 775.539062 L 965.917969 775.539062 L 965.917969 714.375 L 613.410156 714.375 Z M 953.511719 763.136719 L 625.816406 763.136719 L 625.816406 726.777344 L 953.511719 726.777344 Z M 953.511719 763.136719 " fill-opacity="1" fill-rule="nonzero"/></g><path fill="#004aad" d="M 750.367188 428.109375 L 832.65625 394.738281 L 749.746094 190.914062 L 667.332031 225.496094 L 677.828125 253.269531 L 682.949219 252.289062 C 685.195312 251.878906 705.214844 248.867188 709.261719 269.65625 C 709.320312 271.402344 709.359375 282.121094 701.742188 287.40625 L 697.75 290.171875 Z M 816.496094 387.90625 L 757.449219 411.84375 L 712.632812 294.363281 C 722.792969 284.167969 721.675781 269.085938 721.550781 268.425781 L 721.464844 267.820312 C 719.65625 257.894531 715.128906 250.453125 708.007812 245.492188 C 700.292969 240.207031 691.410156 239.449219 685.851562 239.613281 L 683.097656 232.316406 L 742.914062 207.222656 Z M 816.496094 387.90625 " fill-opacity="1" fill-rule="nonzero"/><path fill="#004aad" d="M 741.609375 676.527344 C 749.660156 676.527344 775.882812 675.289062 782.246094 660.117188 C 788.289062 645.667969 786.191406 601.496094 785.96875 596.496094 L 785.632812 590.070312 L 779.207031 590.640625 C 778.390625 590.714844 696.90625 597.660156 658.886719 566.625 C 642.574219 553.292969 628.71875 523.90625 619.875 483.878906 C 612.433594 450.285156 610.84375 418.65625 613.597656 408.59375 C 619.527344 387.023438 631.746094 357.304688 669.21875 348.386719 C 707.671875 339.230469 720.460938 339.480469 720.609375 339.464844 L 729.875 339.714844 L 726.613281 331.03125 L 707.820312 281.773438 L 701.097656 287.902344 C 700.875 288.085938 694.078125 293.820312 683.074219 290.753906 C 673.460938 288.085938 670.210938 278.535156 669.257812 274.554688 L 669.257812 274.292969 C 669.082031 272.304688 669.144531 270.324219 669.441406 268.351562 L 669.441406 267.957031 C 669.738281 265.730469 670.566406 263.726562 671.921875 261.941406 L 679.835938 251.890625 L 665.695312 251.890625 L 662.59375 252.6875 C 641.28125 259.320312 620.898438 268.105469 601.441406 279.046875 C 558.648438 302.996094 529.496094 333.191406 517.191406 366.347656 C 501.449219 408.730469 512.378906 471.78125 524.3125 517.109375 C 536.554688 563.613281 554.429688 608.304688 559.613281 612.84375 C 560.097656 613.277344 561.265625 614.507812 562.492188 615.808594 C 573.542969 627.496094 607.148438 663.046875 667.679688 674.480469 L 673.238281 675.535156 L 674.800781 670.101562 C 679.761719 652.996094 686.796875 635.953125 689.933594 633.632812 C 693.074219 631.316406 705.464844 628.671875 715.636719 631.289062 C 720.472656 632.53125 723.625 634.726562 724.988281 637.765625 C 731.402344 651.941406 733.558594 670.808594 733.585938 670.996094 L 734.179688 676.34375 L 739.550781 676.515625 Z M 773.863281 603.429688 C 774.480469 621.539062 774.171875 647.390625 770.859375 655.328125 C 768.527344 660.898438 755.664062 663.578125 745.207031 664.011719 C 744.027344 656.757812 741.386719 643.683594 736.386719 632.605469 C 733.4375 626.082031 727.371094 621.441406 718.847656 619.234375 C 705.664062 615.796875 689.191406 618.785156 682.652344 623.613281 C 675.433594 628.945312 668.203125 649.585938 664.605469 661.121094 C 655.699219 659.148438 647 656.507812 638.503906 653.199219 C 630.003906 649.886719 621.8125 645.949219 613.917969 641.378906 C 606.027344 636.804688 598.53125 631.660156 591.433594 625.9375 C 584.332031 620.210938 577.714844 613.980469 571.570312 607.238281 C 570.109375 605.6875 569.089844 604.582031 568.210938 603.789062 C 564.589844 598.503906 547.953125 558.835938 535.648438 511.117188 C 524.632812 468.382812 514.5625 409.316406 528.890625 370.613281 C 551.613281 309.449219 630.144531 277.035156 656.988281 267.558594 C 656.535156 270.820312 656.589844 274.074219 657.160156 277.320312 C 658.648438 283.523438 663.785156 298.257812 679.761719 302.699219 C 683.445312 303.78125 687.203125 304.214844 691.035156 304.003906 C 694.863281 303.789062 698.550781 302.941406 702.089844 301.460938 L 712.011719 327.582031 C 703.863281 328.488281 689.535156 330.722656 666.328125 336.265625 C 633.382812 344.105469 612.222656 366.667969 601.617188 405.257812 C 594.65625 430.613281 608.625 541.546875 651.007812 576.179688 C 686.734375 605.351562 752.800781 604.496094 773.8125 603.34375 Z M 568.359375 604.011719 Z M 567.863281 603.492188 Z M 567.863281 603.492188 " fill-opacity="1" fill-rule="nonzero"/><path fill="#004aad" d="M 656.652344 726.777344 L 749.574219 726.777344 L 745.851562 669.234375 C 744.265625 659.832031 740.097656 637.34375 735.558594 631.390625 L 734.664062 630.210938 C 730.667969 624.863281 726.140625 618.800781 711.640625 618.003906 C 703.753906 617.570312 684.761719 617.671875 678.621094 627.839844 C 671.445312 640.074219 666.171875 653.078125 662.804688 666.851562 C 658.105469 685.867188 656.875 718.953125 656.828125 720.351562 Z M 736.363281 714.375 L 669.589844 714.375 C 670.175781 703.84375 671.6875 682.804688 674.898438 669.832031 C 677.960938 657.269531 682.761719 645.410156 689.300781 634.253906 C 690.332031 632.554688 697.761719 629.664062 711.019531 630.398438 C 719.703125 630.867188 721.539062 633.273438 724.789062 637.628906 L 725.769531 638.871094 C 727.691406 641.671875 731.375 657.648438 733.632812 670.933594 Z M 736.363281 714.375 " fill-opacity="1" fill-rule="nonzero"/></svg>